inDegrees=yes
name=ik_XSDot_20240320_161646_orientations
DataType=double
version=3
OpenSimVersion=4.5-2024-01-10-34fd6af
endheader
time	pelvis_tilt	pelvis_list	pelvis_rotation	pelvis_tx	pelvis_ty	pelvis_tz	hip_flexion_r	hip_adduction_r	hip_rotation_r	knee_angle_r	knee_angle_r_beta	ankle_angle_r	subtalar_angle_r	mtp_angle_r	hip_flexion_l	hip_adduction_l	hip_rotation_l	knee_angle_l	knee_angle_l_beta	ankle_angle_l	subtalar_angle_l	mtp_angle_l	lumbar_extension	lumbar_bending	lumbar_rotation	arm_flex_r	arm_add_r	arm_rot_r	elbow_flex_r	pro_sup_r	wrist_flex_r	wrist_dev_r	arm_flex_l	arm_add_l	arm_rot_l	elbow_flex_l	pro_sup_l	wrist_flex_l	wrist_dev_l
1.430000000000001	3.389423286943826	-13.57880569540775	167.790947962194	0	0.9399999999999999	0	36.30490577935236	12.44088175537977	-7.622040702977375	0.004414410722140305	7.704600163668887e-05	-4.277073460279595	0	0	-16.2389619441867	-0.2830089818979771	6.450276000356046	0.02103284074700264	0.0003670923220828198	-4.277073460279595	0	0	0	0	0	0	-3.938120410502439	0	41.96234541718145	35.6782596512254	0	0	0	-3.938120410502439	0	41.96234541718145	35.6782596512254	0	0
1.440000000000001	2.698275032518757	-13.99760551137457	167.8519664527195	0	0.9399999999999999	0	33.24101961629286	10.60941467360275	-7.110508226863751	0.004529256024325014	7.905043029025987e-05	-4.287918591507904	0	0	-15.57581138649466	0.4070762905588642	6.528028131172839	0.0242915920487246	0.0004239682618015192	-4.287918591507904	0	0	0	0	0	0	-3.967983261930017	0	42.14177788649295	35.77865555287652	0	0	0	-3.967983261930017	0	42.14177788649295	35.77865555287652	0	0
1.450000000000001	2.608410825294734	-14.49331525537547	167.9382496559173	0	0.9399999999999999	0	30.658865730823	8.792471694959785	-6.503966694838406	0.004704055336214962	8.210125381295994e-05	-4.299033991467416	0	0	-14.3117108049155	1.133022088296103	6.458551557938848	0.02910620520291048	0.000507999113551892	-4.299033991467416	0	0	0	0	0	0	-3.997920719280565	0	42.32208645098761	35.88056972894475	0	0	0	-3.997920719280565	0	42.32208645098761	35.88056972894475	0	0
1.460000000000001	3.041918783809872	-15.12753920820936	168.109243257845	0	0.9399999999999999	0	28.51532348584112	6.876546206672201	-5.712913322479815	0.004949382220140889	8.638301568112533e-05	-4.31009367472982	0	0	-12.82461946297074	1.784495682361185	6.263028487682385	0.03411804340735466	0.0005954721917966837	-4.31009367472982	0	0	0	0	0	0	-4.027625609070066	0	42.50011356288053	35.98153698359456	0	0	0	-4.027625609070066	0	42.50011356288053	35.98153698359456	0	0
1.470000000000001	3.573481025683032	-15.65289125363569	168.2832371457574	0	0.9399999999999999	0	26.36750785840827	5.129922557049671	-4.85681845992158	0.005283403096931959	9.22127797515278e-05	-4.319981260283866	0	0	-11.19708558874136	2.433440525162464	6.062299892632378	0.04172929140163713	0.0007283135294827275	-4.319981260283866	0	0	0	0	0	0	-4.054741604288484	0	42.66080651874524	36.07212405435402	0	0	0	-4.054741604288484	0	42.66080651874524	36.07212405435402	0	0
1.480000000000001	3.996648670568571	-16.06117201258165	168.3872043235358	0	0.9399999999999999	0	24.06254933070853	3.695087934970007	-4.026256071450179	0.005739949887579102	0.0001001810244377337	-4.330341175220147	0	0	-9.577269496570572	3.057756108558944	5.813183447972825	0.05425843358883381	0.0009469883130998332	-4.330341175220147	0	0	0	0	0	0	-4.083365429692325	0	42.83098249298174	36.16765013064097	0	0	0	-4.083365429692325	0	42.83098249298174	36.16765013064097	0	0
1.490000000000001	4.26796343086727	-16.30713245594722	168.3671455662982	0	0.9399999999999999	0	21.60687347034378	2.567409211357976	-3.19402402189778	0.006367001660561739	0.0001111251424567487	-4.340817301696402	0	0	-7.996993000877143	3.563575541761014	5.441038104779921	0.07737444466888223	0.001350438816374169	-4.340817301696402	0	0	0	0	0	0	-4.112893382771028	0	43.00613013894812	36.26512572616543	0	0	0	-4.112893382771028	0	43.00613013894812	36.26512572616543	0	0
1.500000000000001	4.208118367630743	-16.42022565460646	168.1503465493011	0	0.9399999999999999	0	18.91702688206042	1.6911819181284	-2.283699780712301	0.007246973304608035	0.0001264835449695442	-4.357072593691976	0	0	-6.593608610772217	3.963045069773252	4.943029875602049	0.1320500525542211	0.002304708194502706	-4.357072593691976	0	0	0	0	0	0	-4.155510662836531	0	43.26676496548819	36.41376680524512	0	0	0	-4.155510662836531	0	43.26676496548819	36.41376680524512	0	0
1.510000000000001	3.86726433907759	-16.36845961568909	167.7934824781505	0	0.9399999999999999	0	16.03928192314063	0.9395257076943871	-1.345478607332872	0.008475838732044825	0.0001479312927422436	-4.372200721889972	0	0	-5.296995571020664	4.31192722569057	4.380438857455829	0.3334832710164328	0.00582038107955733	-4.372200721889972	0	0	0	0	0	0	-4.196840935351687	0	43.51531310936891	36.55355729596524	0	0	0	-4.196840935351687	0	43.51531310936891	36.55355729596524	0	0
1.520000000000001	3.163434192689208	-16.18763665685126	167.2877163226514	0	0.9399999999999999	0	12.87853936249711	0.210698076282605	-0.3666271824632681	0.01031261662801824	0.0001799891146548336	-4.387856262208427	0	0	-4.281568981798863	4.594128938418762	3.763681078229601	0.8848246300749109	0.01544310309754804	-4.387856262208427	0	0	0	0	0	0	-4.242613667360355	0	43.78329504393297	36.70084019680146	0	0	0	-4.242613667360355	0	43.78329504393297	36.70084019680146	0	0
1.530000000000001	2.417040624059767	-15.93840908689419	166.7636548294212	0	0.9399999999999999	0	9.875003050330209	-0.4182417077286407	0.5790947557649845	0.01326501806358483	0.0002315182405460778	-4.406514581457131	0	0	-3.455431294493174	4.688802251949935	3.151574543833227	1.446485130649103	0.02524592811096718	-4.406514581457131	0	0	0	0	0	0	-4.296108805333431	0	44.09960908791896	36.87579893595284	0	0	0	-4.296108805333431	0	44.09960908791896	36.87579893595284	0	0
1.540000000000001	2.071576303056821	-15.66442712989065	166.3701550261676	0	0.9399999999999999	0	7.639051682281819	-1.257533679134875	1.578866323204043	0.01863101661666826	0.0003251725829546354	-4.41803882358562	0	0	-2.458841679546162	4.544458314773554	2.56177043636927	1.772659406983559	0.03093874316831327	-4.41803882358562	0	0	0	0	0	0	-4.330497938610783	0	44.30014954573719	36.98519865030615	0	0	0	-4.330497938610783	0	44.30014954573719	36.98519865030615	0	0
1.550000000000001	1.82280798514614	-15.29225239760426	166.0055916008635	0	0.9399999999999999	0	5.882107044241698	-2.47064909354238	2.620724590572236	0.02891291923993205	0.0005046256371000307	-4.425546549185793	0	0	-1.359821815005117	4.183580959019664	1.909067571806525	2.097910240944433	0.03661544111578791	-4.425546549185793	0	0	0	0	0	0	-4.355150022629557	0	44.43821047774934	37.05813314558094	0	0	0	-4.355150022629557	0	44.43821047774934	37.05813314558094	0	0
1.560000000000001	1.533999152717314	-14.73679703917146	165.6776399505695	0	0.9399999999999999	0	4.438224026214024	-3.243884335210093	3.303264441055041	0.04865422617544408	0.0008491764417715075	-4.431821843415969	0	0	-0.2524431790643857	3.711261965848066	1.364394505392714	2.364505298860715	0.04126840264597201	-4.431821843415969	0	0	0	0	0	0	-4.376432723660736	0	44.55585111533843	37.11957758714721	0	0	0	-4.376432723660736	0	44.55585111533843	37.11957758714721	0	0
1.570000000000001	1.329225159031645	-14.10515579873957	165.4464716610668	0	0.9399999999999999	0	3.273745636351106	-3.699445988359012	3.740078704708773	0.0731873626507772	0.001277360449107187	-4.445280551677183	0	0	0.9609107001121109	3.213532060963828	0.952451825838174	2.523005162524072	0.0440347471308597	-4.445280551677183	0	0	0	0	0	0	-4.413229613116863	0	44.7759111313041	37.24390306052047	0	0	0	-4.413229613116863	0	44.7759111313041	37.24390306052047	0	0
1.580000000000001	1.391286389353376	-13.57262364797822	165.475983477671	0	0.9399999999999999	0	2.883928992090913	-4.556842996944455	4.037608380331928	0.07075773172091164	0.001234955389772741	-4.449169623534907	0	0	2.245566237432976	2.709404366924537	0.915158061932456	2.432695646480591	0.04245854873001832	-4.449169623534907	0	0	0	0	0	0	-4.42662779015158	0	44.84926401544969	37.28207205290551	0	0	0	-4.42662779015158	0	44.84926401544969	37.28207205290551	0	0
1.590000000000001	1.766735867758451	-13.26799361238232	165.6889780791097	0	0.9399999999999999	0	3.57311351507542	-5.406479583244654	4.100393861428847	0.05241341507730283	0.0009147866653133725	-4.453166011275677	0	0	3.628994668338041	2.212004288078348	1.176716944164093	2.04497616077545	0.03569156713032451	-4.453166011275677	0	0	0	0	0	0	-4.438140285019632	0	44.91739648700498	37.3197925856828	0	0	0	-4.438140285019632	0	44.91739648700498	37.3197925856828	0	0
1.600000000000001	1.362102180793745	-13.29800327996522	165.8569851441307	0	0.9399999999999999	0	4.217394093641057	-6.353076622980618	3.92977463588258	0.03739924107476027	0.0006527398945016694	-4.455728065388964	0	0	4.23090469715325	2.212656278671699	1.768782553300833	1.420164685716969	0.0247865496863116	-4.455728065388964	0	0	0	0	0	0	-4.44436345903183	0	44.95670792013492	37.34293288384938	0	0	0	-4.44436345903183	0	44.95670792013492	37.34293288384938	0	0
1.610000000000001	0.7200169217679827	-13.5859874558134	165.926431008448	0	0.9399999999999999	0	5.253746346646203	-7.964058932279158	3.905193033695001	0.03053916693333641	0.0005330090138029	-4.458677451455316	0	0	4.611330230221166	2.532967632388758	2.4977238138896	0.6761052631589936	0.01180026293218715	-4.458677451455316	0	0	0	0	0	0	-4.452372426291205	0	45.00466451525603	37.37013702764326	0	0	0	-4.452372426291205	0	45.00466451525603	37.37013702764326	0	0
1.620000000000001	0.4251193972048814	-13.68129762504354	165.9784882313771	0	0.9399999999999999	0	5.251710683438229	-7.935731329666494	3.248434733493705	0.03061913841173411	0.0005344047794086274	-4.460407182721783	0	0	5.408246251228025	2.470992332974274	3.065841504965801	0.229476070783707	0.004005112989715252	-4.460407182721783	0	0	0	0	0	0	-4.455897269434835	0	45.02955144753506	37.385535568722	0	0	0	-4.455897269434835	0	45.02955144753506	37.385535568722	0	0
1.630000000000001	1.785878856342308	-13.83072901284056	166.5953537196827	0	0.9399999999999999	0	7.112833138057687	-5.721575359900172	2.714231722308063	0.02628455108622547	0.0004587519588632865	-4.464879034719312	0	0	7.966620246936889	2.042325528016093	3.800286874696166	0.09887965481769007	0.001725775539804165	-4.464879034719312	0	0	0	0	0	0	-4.46831673020804	0	45.10415158158842	37.42741655901271	0	0	0	-4.46831673020804	0	45.10415158158842	37.42741655901271	0	0
1.640000000000001	3.283212710232023	-13.99939980126549	167.4579960101087	0	0.9399999999999999	0	9.752314680969279	-4.371396577775713	1.974573818454772	0.02079369080933824	0.0003629183682646367	-4.470025817011627	0	0	10.44880037430345	1.610033038562326	4.653513839259842	0.05196009756058888	0.0009068747820897498	-4.470025817011627	0	0	0	0	0	0	-4.481940713964561	0	45.18817591080436	37.47532880169023	0	0	0	-4.481940713964561	0	45.18817591080436	37.47532880169023	0	0
1.650000000000001	2.307843837671339	-14.15951777694244	167.7875794601195	0	0.9399999999999999	0	10.14838768726969	-4.696269579662453	0.8682067429098755	0.01745126694199333	0.0003045820667822259	-4.473309668977091	0	0	10.34426644387891	1.648326841228604	5.33834778641185	0.03202381885884113	0.000558921078149031	-4.473309668977091	0	0	0	0	0	0	-4.492188692614381	0	45.24616234227754	37.50665616974376	0	0	0	-4.492188692614381	0	45.24616234227754	37.50665616974376	0	0
1.660000000000001	0.6977297148662899	-14.55044297744369	167.9481900881653	0	0.9399999999999999	0	9.667582277942675	-4.17597682900796	-0.3508415787596204	0.01552272667560423	0.0002709226893764476	-4.477473346652245	0	0	9.464365503063508	1.977168582564574	6.034238783098626	0.02189369186873389	0.0003821170085265166	-4.477473346652245	0	0	0	0	0	0	-4.505720320788114	0	45.32133567374735	37.54671189045181	0	0	0	-4.505720320788114	0	45.32133567374735	37.54671189045181	0	0
1.670000000000001	0.121611362673428	-14.97293831306282	168.1281602139311	0	0.9399999999999999	0	10.59793767249897	-3.945274789999634	-1.30580320552939	0.01459072904501375	0.0002546562621018579	-4.480692292463923	0	0	9.358616148270096	2.159053399852296	6.634267616246498	0.01613396652450908	0.0002815908372592298	-4.480692292463923	0	0	0	0	0	0	-4.515204394300593	0	45.37656382863133	37.57715020945128	0	0	0	-4.515204394300593	0	45.37656382863133	37.57715020945128	0	0
